<svg width="34" height="34" viewBox="0 0 34 34" fill="none" xmlns="http://www.w3.org/2000/svg">
<path d="M15.6244 3.59827C16.0452 3.36458 16.5186 3.24194 17 3.24194C17.4814 3.24194 17.9548 3.36458 18.3756 3.59827L29.0218 9.51144C29.2426 9.63418 29.4264 9.81369 29.5545 10.0314C29.6825 10.2491 29.75 10.4971 29.75 10.7496V22.4159C29.7499 22.9211 29.6147 23.4171 29.3583 23.8525C29.102 24.2879 28.734 24.6469 28.2923 24.8922L18.3756 30.403C17.9548 30.6367 17.4814 30.7594 17 30.7594C16.5186 30.7594 16.0452 30.6367 15.6244 30.403L5.70775 24.8922C5.26625 24.647 4.89831 24.2883 4.64201 23.8531C4.38571 23.418 4.25037 22.9223 4.25 22.4173V10.7496C4.24999 10.4971 4.31749 10.2491 4.44552 10.0314C4.57355 9.81369 4.75745 9.63418 4.97817 9.51144L15.6258 3.59827H15.6244Z" stroke="black" stroke-width="2" stroke-linecap="round" stroke-linejoin="round"/>
<path d="M17 17V31.1666M4.25 9.91663L17 17L4.25 9.91663ZM17 17L29.75 9.91663L17 17Z" stroke="black" stroke-width="2" stroke-linejoin="round"/>
<path d="M10.625 13.4583L23.375 6.375" stroke="black" stroke-width="2" stroke-linecap="round" stroke-linejoin="round"/>
<path d="M8.5 17.4646L12.75 19.8333" stroke="black" stroke-width="2" stroke-linecap="round" stroke-linejoin="round"/>
</svg>
