<svg width="24" height="30" viewBox="0 0 24 30" fill="none" xmlns="http://www.w3.org/2000/svg">
<path d="M5.35023 13.3992H18.1908C18.4746 13.3992 18.7467 13.2815 18.9474 13.0721C19.1481 12.8627 19.2608 12.5786 19.2608 12.2825V5.58233C19.2608 5.28616 19.1481 5.00213 18.9474 4.79271C18.7467 4.58329 18.4746 4.46564 18.1908 4.46564H5.35023C5.06644 4.46564 4.79427 4.58329 4.59359 4.79271C4.39292 5.00213 4.28018 5.28616 4.28018 5.58233V12.2825C4.28018 12.5786 4.39292 12.8627 4.59359 13.0721C4.79427 13.2815 5.06644 13.3992 5.35023 13.3992ZM6.42028 6.69902H17.1207V11.1658H6.42028V6.69902ZM21.4009 0H2.14009C1.5727 0.000665019 1.02873 0.23618 0.627523 0.654876C0.226315 1.07357 0.000637241 1.64125 0 2.23338V26.8005C0.000637241 27.3927 0.226315 27.9603 0.627523 28.379C1.02873 28.7977 1.5727 29.0333 2.14009 29.0339H21.4009C21.9683 29.0333 22.5123 28.7977 22.9135 28.379C23.3147 27.9603 23.5404 27.3927 23.541 26.8005V2.23338C23.5404 1.64125 23.3147 1.07357 22.9135 0.654876C22.5123 0.23618 21.9683 0.000665019 21.4009 0ZM21.4009 26.8005L2.14009 26.8019V2.23338H21.4009V26.8005ZM13.3756 17.3076C13.3756 17.6389 13.2814 17.9627 13.1051 18.2382C12.9287 18.5136 12.678 18.7283 12.3847 18.8551C12.0915 18.9819 11.7687 19.015 11.4574 18.9504C11.146 18.8858 10.86 18.7262 10.6356 18.492C10.4111 18.2577 10.2582 17.9593 10.1963 17.6343C10.1343 17.3094 10.1661 16.9726 10.2876 16.6666C10.4091 16.3605 10.6148 16.0989 10.8788 15.9148C11.1427 15.7308 11.4531 15.6325 11.7705 15.6325C12.196 15.633 12.604 15.8097 12.9049 16.1237C13.2058 16.4377 13.3751 16.8635 13.3756 17.3076ZM13.3756 22.891C13.3756 23.2223 13.2814 23.5462 13.1051 23.8216C12.9287 24.0971 12.678 24.3118 12.3847 24.4385C12.0915 24.5653 11.7687 24.5985 11.4574 24.5339C11.146 24.4692 10.86 24.3097 10.6356 24.0754C10.4111 23.8412 10.2582 23.5427 10.1963 23.2178C10.1343 22.8929 10.1661 22.5561 10.2876 22.25C10.4091 21.9439 10.6148 21.6823 10.8788 21.4983C11.1427 21.3142 11.4531 21.216 11.7705 21.216C12.196 21.2165 12.604 21.3931 12.9049 21.7072C13.2058 22.0212 13.3751 22.4469 13.3756 22.891ZM8.02535 17.3076C8.02535 17.6389 7.93121 17.9627 7.75484 18.2382C7.57848 18.5136 7.3278 18.7283 7.03451 18.8551C6.74122 18.9819 6.4185 19.015 6.10714 18.9504C5.79579 18.8858 5.50979 18.7262 5.28532 18.492C5.06085 18.2577 4.90798 17.9593 4.84605 17.6343C4.78412 17.3094 4.8159 16.9726 4.93739 16.6666C5.05887 16.3605 5.2646 16.0989 5.52855 15.9148C5.7925 15.7308 6.10282 15.6325 6.42028 15.6325C6.84582 15.633 7.25378 15.8097 7.55468 16.1237C7.85559 16.4377 8.02485 16.8635 8.02535 17.3076ZM8.02535 22.891C8.02535 23.2223 7.93121 23.5462 7.75484 23.8216C7.57848 24.0971 7.3278 24.3118 7.03451 24.4385C6.74122 24.5653 6.4185 24.5985 6.10714 24.5339C5.79579 24.4692 5.50979 24.3097 5.28532 24.0754C5.06085 23.8412 4.90798 23.5427 4.84605 23.2178C4.78412 22.8929 4.8159 22.5561 4.93739 22.25C5.05887 21.9439 5.2646 21.6823 5.52855 21.4983C5.7925 21.3142 6.10282 21.216 6.42028 21.216C6.84582 21.2165 7.25378 21.3931 7.55468 21.7072C7.85559 22.0212 8.02485 22.4469 8.02535 22.891ZM18.7258 17.3076C18.7258 17.6389 18.6317 17.9627 18.4553 18.2382C18.2789 18.5136 18.0283 18.7283 17.735 18.8551C17.4417 18.9819 17.119 19.015 16.8076 18.9504C16.4963 18.8858 16.2103 18.7262 15.9858 18.492C15.7613 18.2577 15.6084 17.9593 15.5465 17.6343C15.4846 17.3094 15.5164 16.9726 15.6378 16.6666C15.7593 16.3605 15.9651 16.0989 16.229 15.9148C16.493 15.7308 16.8033 15.6325 17.1207 15.6325C17.5463 15.633 17.9542 15.8097 18.2551 16.1237C18.556 16.4377 18.7253 16.8635 18.7258 17.3076ZM18.7258 22.891C18.7258 23.2223 18.6317 23.5462 18.4553 23.8216C18.2789 24.0971 18.0283 24.3118 17.735 24.4385C17.4417 24.5653 17.119 24.5985 16.8076 24.5339C16.4963 24.4692 16.2103 24.3097 15.9858 24.0754C15.7613 23.8412 15.6084 23.5427 15.5465 23.2178C15.4846 22.8929 15.5164 22.5561 15.6378 22.25C15.7593 21.9439 15.9651 21.6823 16.229 21.4983C16.493 21.3142 16.8033 21.216 17.1207 21.216C17.5463 21.2165 17.9542 21.3931 18.2551 21.7072C18.556 22.0212 18.7253 22.4469 18.7258 22.891Z" fill="white"/>
</svg>
