<svg width="37" height="49" viewBox="0 0 37 49" fill="none" xmlns="http://www.w3.org/2000/svg">
<path d="M18.5 24.5C15.9563 24.5 13.875 22.381 13.875 19.791C13.875 17.201 15.9563 15.0819 18.5 15.0819C21.0438 15.0819 23.125 17.201 23.125 19.791C23.125 22.381 21.0438 24.5 18.5 24.5ZM32.375 20.2619C32.375 11.7149 26.2469 5.66368 18.5 5.66368C10.7531 5.66368 4.625 11.7149 4.625 20.2619C4.625 25.7715 9.13437 33.0706 18.5 41.7824C27.8656 33.0706 32.375 25.7715 32.375 20.2619ZM18.5 0.95459C28.2125 0.95459 37 8.53622 37 20.2619C37 28.0789 30.8256 37.3323 18.5 48.0455C6.17438 37.3323 0 28.0789 0 20.2619C0 8.53622 8.7875 0.95459 18.5 0.95459Z" fill="black"/>
<circle cx="18.4994" cy="19.4551" r="5.04545" fill="black"/>
</svg>
