<svg width="224" height="44" viewBox="0 0 224 44" fill="none" xmlns="http://www.w3.org/2000/svg">
<rect x="1" y="1" width="222" height="42" rx="9" stroke="#FB5C02" stroke-width="2"/>
<path d="M49.248 20.288C49.248 20.8853 49.104 21.4453 48.816 21.968C48.5387 22.4907 48.096 22.912 47.488 23.232C46.8907 23.552 46.1333 23.712 45.216 23.712H43.344V28H41.104V16.832H45.216C46.08 16.832 46.816 16.9813 47.424 17.28C48.032 17.5787 48.4853 17.9893 48.784 18.512C49.0933 19.0347 49.248 19.6267 49.248 20.288ZM45.12 21.904C45.7387 21.904 46.1973 21.7653 46.496 21.488C46.7947 21.2 46.944 20.8 46.944 20.288C46.944 19.2 46.336 18.656 45.12 18.656H43.344V21.904H45.12ZM53.0784 20.512C53.3664 20.0427 53.7397 19.6747 54.1984 19.408C54.6677 19.1413 55.201 19.008 55.7984 19.008V21.36H55.2064C54.5024 21.36 53.969 21.5253 53.6064 21.856C53.2544 22.1867 53.0784 22.7627 53.0784 23.584V28H50.8384V19.136H53.0784V20.512ZM61.2431 28.144C60.3898 28.144 59.6218 27.9573 58.9391 27.584C58.2565 27.2 57.7178 26.6613 57.3231 25.968C56.9391 25.2747 56.7471 24.4747 56.7471 23.568C56.7471 22.6613 56.9445 21.8613 57.3391 21.168C57.7445 20.4747 58.2938 19.9413 58.9871 19.568C59.6805 19.184 60.4538 18.992 61.3071 18.992C62.1605 18.992 62.9338 19.184 63.6271 19.568C64.3205 19.9413 64.8645 20.4747 65.2591 21.168C65.6645 21.8613 65.8671 22.6613 65.8671 23.568C65.8671 24.4747 65.6591 25.2747 65.2431 25.968C64.8378 26.6613 64.2831 27.2 63.5791 27.584C62.8858 27.9573 62.1071 28.144 61.2431 28.144ZM61.2431 26.192C61.6485 26.192 62.0271 26.096 62.3791 25.904C62.7418 25.7013 63.0298 25.4027 63.2431 25.008C63.4565 24.6133 63.5631 24.1333 63.5631 23.568C63.5631 22.7253 63.3391 22.08 62.8911 21.632C62.4538 21.1733 61.9151 20.944 61.2751 20.944C60.6351 20.944 60.0965 21.1733 59.6591 21.632C59.2325 22.08 59.0191 22.7253 59.0191 23.568C59.0191 24.4107 59.2271 25.0613 59.6431 25.52C60.0698 25.968 60.6031 26.192 61.2431 26.192ZM78.5183 19.008C79.6063 19.008 80.4809 19.344 81.1423 20.016C81.8143 20.6773 82.1503 21.6053 82.1503 22.8V28H79.9103V23.104C79.9103 22.4107 79.7343 21.8827 79.3823 21.52C79.0303 21.1467 78.5503 20.96 77.9423 20.96C77.3343 20.96 76.8489 21.1467 76.4863 21.52C76.1343 21.8827 75.9583 22.4107 75.9583 23.104V28H73.7183V23.104C73.7183 22.4107 73.5423 21.8827 73.1903 21.52C72.8383 21.1467 72.3583 20.96 71.7503 20.96C71.1316 20.96 70.6409 21.1467 70.2783 21.52C69.9263 21.8827 69.7503 22.4107 69.7503 23.104V28H67.5103V19.136H69.7503V20.208C70.0383 19.8347 70.4063 19.5413 70.8543 19.328C71.3129 19.1147 71.8143 19.008 72.3583 19.008C73.0516 19.008 73.6703 19.1573 74.2143 19.456C74.7583 19.744 75.1796 20.16 75.4783 20.704C75.7663 20.192 76.1823 19.7813 76.7263 19.472C77.2809 19.1627 77.8783 19.008 78.5183 19.008ZM88.2119 28.144C87.3585 28.144 86.5905 27.9573 85.9079 27.584C85.2252 27.2 84.6865 26.6613 84.2919 25.968C83.9079 25.2747 83.7159 24.4747 83.7159 23.568C83.7159 22.6613 83.9132 21.8613 84.3079 21.168C84.7132 20.4747 85.2625 19.9413 85.9559 19.568C86.6492 19.184 87.4225 18.992 88.2759 18.992C89.1292 18.992 89.9025 19.184 90.5959 19.568C91.2892 19.9413 91.8332 20.4747 92.2279 21.168C92.6332 21.8613 92.8359 22.6613 92.8359 23.568C92.8359 24.4747 92.6279 25.2747 92.2119 25.968C91.8065 26.6613 91.2519 27.2 90.5479 27.584C89.8545 27.9573 89.0759 28.144 88.2119 28.144ZM88.2119 26.192C88.6172 26.192 88.9959 26.096 89.3479 25.904C89.7105 25.7013 89.9985 25.4027 90.2119 25.008C90.4252 24.6133 90.5319 24.1333 90.5319 23.568C90.5319 22.7253 90.3079 22.08 89.8599 21.632C89.4225 21.1733 88.8839 20.944 88.2439 20.944C87.6039 20.944 87.0652 21.1733 86.6279 21.632C86.2012 22.08 85.9879 22.7253 85.9879 23.568C85.9879 24.4107 86.1959 25.0613 86.6119 25.52C87.0385 25.968 87.5719 26.192 88.2119 26.192ZM100.532 26.224H104.212V28H98.2915V16.832H100.532V26.224ZM105.059 23.536C105.059 22.64 105.235 21.8453 105.587 21.152C105.95 20.4587 106.435 19.9253 107.043 19.552C107.662 19.1787 108.35 18.992 109.107 18.992C109.769 18.992 110.345 19.1253 110.835 19.392C111.337 19.6587 111.737 19.9947 112.035 20.4V19.136H114.291V28H112.035V26.704C111.747 27.12 111.347 27.4667 110.835 27.744C110.334 28.0107 109.753 28.144 109.091 28.144C108.345 28.144 107.662 27.952 107.043 27.568C106.435 27.184 105.95 26.6453 105.587 25.952C105.235 25.248 105.059 24.4427 105.059 23.536ZM112.035 23.568C112.035 23.024 111.929 22.56 111.715 22.176C111.502 21.7813 111.214 21.4827 110.851 21.28C110.489 21.0667 110.099 20.96 109.683 20.96C109.267 20.96 108.883 21.0613 108.531 21.264C108.179 21.4667 107.891 21.7653 107.667 22.16C107.454 22.544 107.347 23.0027 107.347 23.536C107.347 24.0693 107.454 24.5387 107.667 24.944C107.891 25.3387 108.179 25.6427 108.531 25.856C108.894 26.0693 109.278 26.176 109.683 26.176C110.099 26.176 110.489 26.0747 110.851 25.872C111.214 25.6587 111.502 25.36 111.715 24.976C111.929 24.5813 112.035 24.112 112.035 23.568ZM117.615 18.08C117.22 18.08 116.89 17.9573 116.623 17.712C116.367 17.456 116.239 17.1413 116.239 16.768C116.239 16.3947 116.367 16.0853 116.623 15.84C116.89 15.584 117.22 15.456 117.615 15.456C118.01 15.456 118.335 15.584 118.591 15.84C118.858 16.0853 118.991 16.3947 118.991 16.768C118.991 17.1413 118.858 17.456 118.591 17.712C118.335 17.9573 118.01 18.08 117.615 18.08ZM118.719 19.136V28H116.479V19.136H118.719ZM125.844 19.008C126.9 19.008 127.753 19.344 128.404 20.016C129.055 20.6773 129.38 21.6053 129.38 22.8V28H127.14V23.104C127.14 22.4 126.964 21.8613 126.612 21.488C126.26 21.104 125.78 20.912 125.172 20.912C124.553 20.912 124.063 21.104 123.7 21.488C123.348 21.8613 123.172 22.4 123.172 23.104V28H120.932V19.136H123.172V20.24C123.471 19.856 123.849 19.5573 124.308 19.344C124.777 19.12 125.289 19.008 125.844 19.008ZM136.422 19.008C137.478 19.008 138.332 19.344 138.982 20.016C139.633 20.6773 139.958 21.6053 139.958 22.8V28H137.718V23.104C137.718 22.4 137.542 21.8613 137.19 21.488C136.838 21.104 136.358 20.912 135.75 20.912C135.132 20.912 134.641 21.104 134.278 21.488C133.926 21.8613 133.75 22.4 133.75 23.104V28H131.51V19.136H133.75V20.24C134.049 19.856 134.428 19.5573 134.886 19.344C135.356 19.12 135.868 19.008 136.422 19.008ZM150.568 19.136L145.08 32.192H142.696L144.616 27.776L141.064 19.136H143.576L145.864 25.328L148.184 19.136H150.568ZM151.2 23.536C151.2 22.64 151.376 21.8453 151.728 21.152C152.091 20.4587 152.576 19.9253 153.184 19.552C153.803 19.1787 154.491 18.992 155.248 18.992C155.909 18.992 156.485 19.1253 156.976 19.392C157.477 19.6587 157.877 19.9947 158.176 20.4V19.136H160.432V28H158.176V26.704C157.888 27.12 157.488 27.4667 156.976 27.744C156.475 28.0107 155.893 28.144 155.232 28.144C154.485 28.144 153.803 27.952 153.184 27.568C152.576 27.184 152.091 26.6453 151.728 25.952C151.376 25.248 151.2 24.4427 151.2 23.536ZM158.176 23.568C158.176 23.024 158.069 22.56 157.856 22.176C157.643 21.7813 157.355 21.4827 156.992 21.28C156.629 21.0667 156.24 20.96 155.824 20.96C155.408 20.96 155.024 21.0613 154.672 21.264C154.32 21.4667 154.032 21.7653 153.808 22.16C153.595 22.544 153.488 23.0027 153.488 23.536C153.488 24.0693 153.595 24.5387 153.808 24.944C154.032 25.3387 154.32 25.6427 154.672 25.856C155.035 26.0693 155.419 26.176 155.824 26.176C156.24 26.176 156.629 26.0747 156.992 25.872C157.355 25.6587 157.643 25.36 157.856 24.976C158.069 24.5813 158.176 24.112 158.176 23.568Z" fill="#FB5C02"/>
<path d="M185.354 23.3536C185.549 23.1583 185.549 22.8417 185.354 22.6464L182.172 19.4645C181.976 19.2692 181.66 19.2692 181.464 19.4645C181.269 19.6597 181.269 19.9763 181.464 20.1716L184.293 23L181.464 25.8284C181.269 26.0237 181.269 26.3403 181.464 26.5355C181.66 26.7308 181.976 26.7308 182.172 26.5355L185.354 23.3536ZM168 23.5L185 23.5L185 22.5L168 22.5L168 23.5Z" fill="#FB5C02"/>
</svg>
