<svg width="224" height="44" viewBox="0 0 224 44" fill="none" xmlns="http://www.w3.org/2000/svg">
<rect x="1" y="1" width="222" height="42" rx="9" stroke="#FB5C02" stroke-width="2"/>
<path d="M44.96 27.112C44.1813 27.112 43.4773 26.9787 42.848 26.712C42.2293 26.4453 41.7387 26.0613 41.376 25.56C41.0133 25.0587 40.8267 24.4667 40.816 23.784H43.216C43.248 24.2427 43.408 24.6053 43.696 24.872C43.9947 25.1387 44.4 25.272 44.912 25.272C45.4347 25.272 45.8453 25.1493 46.144 24.904C46.4427 24.648 46.592 24.3173 46.592 23.912C46.592 23.5813 46.4907 23.3093 46.288 23.096C46.0853 22.8827 45.8293 22.7173 45.52 22.6C45.2213 22.472 44.8053 22.3333 44.272 22.184C43.5467 21.9707 42.9547 21.7627 42.496 21.56C42.048 21.3467 41.6587 21.032 41.328 20.616C41.008 20.1893 40.848 19.624 40.848 18.92C40.848 18.2587 41.0133 17.6827 41.344 17.192C41.6747 16.7013 42.1387 16.328 42.736 16.072C43.3333 15.8053 44.016 15.672 44.784 15.672C45.936 15.672 46.8693 15.9547 47.584 16.52C48.3093 17.0747 48.7093 17.8533 48.784 18.856H46.32C46.2987 18.472 46.1333 18.1573 45.824 17.912C45.5253 17.656 45.1253 17.528 44.624 17.528C44.1867 17.528 43.8347 17.64 43.568 17.864C43.312 18.088 43.184 18.4133 43.184 18.84C43.184 19.1387 43.28 19.3893 43.472 19.592C43.6747 19.784 43.92 19.944 44.208 20.072C44.5067 20.1893 44.9227 20.328 45.456 20.488C46.1813 20.7013 46.7733 20.9147 47.232 21.128C47.6907 21.3413 48.0853 21.6613 48.416 22.088C48.7467 22.5147 48.912 23.0747 48.912 23.768C48.912 24.3653 48.7573 24.92 48.448 25.432C48.1387 25.944 47.6853 26.3547 47.088 26.664C46.4907 26.9627 45.7813 27.112 44.96 27.112ZM59.094 22.376C59.094 22.696 59.0727 22.984 59.03 23.24H52.55C52.6033 23.88 52.8273 24.3813 53.222 24.744C53.6167 25.1067 54.102 25.288 54.678 25.288C55.51 25.288 56.102 24.9307 56.454 24.216H58.87C58.614 25.0693 58.1233 25.7733 57.398 26.328C56.6727 26.872 55.782 27.144 54.726 27.144C53.8727 27.144 53.1047 26.9573 52.422 26.584C51.75 26.2 51.222 25.6613 50.838 24.968C50.4647 24.2747 50.278 23.4747 50.278 22.568C50.278 21.6507 50.4647 20.8453 50.838 20.152C51.2113 19.4587 51.734 18.9253 52.406 18.552C53.078 18.1787 53.8513 17.992 54.726 17.992C55.5687 17.992 56.3207 18.1733 56.982 18.536C57.654 18.8987 58.1713 19.416 58.534 20.088C58.9073 20.7493 59.094 21.512 59.094 22.376ZM56.774 21.736C56.7633 21.16 56.5553 20.7013 56.15 20.36C55.7447 20.008 55.2487 19.832 54.662 19.832C54.1073 19.832 53.638 20.0027 53.254 20.344C52.8807 20.6747 52.6513 21.1387 52.566 21.736H56.774ZM62.969 15.16V27H60.729V15.16H62.969ZM73.4221 22.376C73.4221 22.696 73.4008 22.984 73.3581 23.24H66.8781C66.9315 23.88 67.1555 24.3813 67.5501 24.744C67.9448 25.1067 68.4301 25.288 69.0061 25.288C69.8381 25.288 70.4301 24.9307 70.7821 24.216H73.1981C72.9421 25.0693 72.4515 25.7733 71.7261 26.328C71.0008 26.872 70.1101 27.144 69.0541 27.144C68.2008 27.144 67.4328 26.9573 66.7501 26.584C66.0781 26.2 65.5501 25.6613 65.1661 24.968C64.7928 24.2747 64.6061 23.4747 64.6061 22.568C64.6061 21.6507 64.7928 20.8453 65.1661 20.152C65.5395 19.4587 66.0621 18.9253 66.7341 18.552C67.4061 18.1787 68.1795 17.992 69.0541 17.992C69.8968 17.992 70.6488 18.1733 71.3101 18.536C71.9821 18.8987 72.4995 19.416 72.8621 20.088C73.2355 20.7493 73.4221 21.512 73.4221 22.376ZM71.1021 21.736C71.0915 21.16 70.8835 20.7013 70.4781 20.36C70.0728 20.008 69.5768 19.832 68.9901 19.832C68.4355 19.832 67.9661 20.0027 67.5821 20.344C67.2088 20.6747 66.9795 21.1387 66.8941 21.736H71.1021ZM79.9691 18.008C81.0251 18.008 81.8785 18.344 82.5291 19.016C83.1798 19.6773 83.5051 20.6053 83.5051 21.8V27H81.2651V22.104C81.2651 21.4 81.0891 20.8613 80.7371 20.488C80.3851 20.104 79.9051 19.912 79.2971 19.912C78.6785 19.912 78.1878 20.104 77.8251 20.488C77.4731 20.8613 77.2971 21.4 77.2971 22.104V27H75.0571V18.136H77.2971V19.24C77.5958 18.856 77.9745 18.5573 78.4331 18.344C78.9025 18.12 79.4145 18.008 79.9691 18.008ZM89.1073 17.992C89.7686 17.992 90.3499 18.1253 90.8513 18.392C91.3526 18.648 91.7473 18.984 92.0353 19.4V18.136H94.2913V27.064C94.2913 27.8853 94.1259 28.616 93.7953 29.256C93.4646 29.9067 92.9686 30.4187 92.3073 30.792C91.6459 31.176 90.8459 31.368 89.9073 31.368C88.6486 31.368 87.6139 31.0747 86.8033 30.488C86.0033 29.9013 85.5499 29.1013 85.4433 28.088H87.6673C87.7846 28.4933 88.0353 28.8133 88.4193 29.048C88.8139 29.2933 89.2886 29.416 89.8433 29.416C90.4939 29.416 91.0219 29.2187 91.4273 28.824C91.8326 28.44 92.0353 27.8533 92.0353 27.064V25.688C91.7473 26.104 91.3473 26.4507 90.8353 26.728C90.3339 27.0053 89.7579 27.144 89.1073 27.144C88.3606 27.144 87.6779 26.952 87.0593 26.568C86.4406 26.184 85.9499 25.6453 85.5872 24.952C85.2352 24.248 85.0592 23.4427 85.0592 22.536C85.0592 21.64 85.2352 20.8453 85.5872 20.152C85.9499 19.4587 86.4353 18.9253 87.0433 18.552C87.6619 18.1787 88.3499 17.992 89.1073 17.992ZM92.0353 22.568C92.0353 22.024 91.9286 21.56 91.7153 21.176C91.5019 20.7813 91.2139 20.4827 90.8513 20.28C90.4886 20.0667 90.0993 19.96 89.6833 19.96C89.2673 19.96 88.8833 20.0613 88.5312 20.264C88.1793 20.4667 87.8913 20.7653 87.6673 21.16C87.4539 21.544 87.3473 22.0027 87.3473 22.536C87.3473 23.0693 87.4539 23.5387 87.6673 23.944C87.8913 24.3387 88.1793 24.6427 88.5312 24.856C88.8939 25.0693 89.2779 25.176 89.6833 25.176C90.0993 25.176 90.4886 25.0747 90.8513 24.872C91.2139 24.6587 91.5019 24.36 91.7153 23.976C91.9286 23.5813 92.0353 23.112 92.0353 22.568ZM101.727 27L98.719 23.224V27H96.479V15.16H98.719V21.896L101.695 18.136H104.607L100.703 22.584L104.639 27H101.727ZM105.247 22.536C105.247 21.64 105.423 20.8453 105.775 20.152C106.137 19.4587 106.623 18.9253 107.231 18.552C107.849 18.1787 108.537 17.992 109.295 17.992C109.956 17.992 110.532 18.1253 111.023 18.392C111.524 18.6587 111.924 18.9947 112.223 19.4V18.136H114.479V27H112.223V25.704C111.935 26.12 111.535 26.4667 111.023 26.744C110.521 27.0107 109.94 27.144 109.279 27.144C108.532 27.144 107.849 26.952 107.231 26.568C106.623 26.184 106.137 25.6453 105.775 24.952C105.423 24.248 105.247 23.4427 105.247 22.536ZM112.223 22.568C112.223 22.024 112.116 21.56 111.903 21.176C111.689 20.7813 111.401 20.4827 111.039 20.28C110.676 20.0667 110.287 19.96 109.871 19.96C109.455 19.96 109.071 20.0613 108.719 20.264C108.367 20.4667 108.079 20.7653 107.855 21.16C107.641 21.544 107.535 22.0027 107.535 22.536C107.535 23.0693 107.641 23.5387 107.855 23.944C108.079 24.3387 108.367 24.6427 108.719 24.856C109.081 25.0693 109.465 25.176 109.871 25.176C110.287 25.176 110.676 25.0747 111.039 24.872C111.401 24.6587 111.689 24.36 111.903 23.976C112.116 23.5813 112.223 23.112 112.223 22.568ZM118.907 19.416C119.195 19.0107 119.589 18.6747 120.091 18.408C120.603 18.1307 121.184 17.992 121.835 17.992C122.592 17.992 123.275 18.1787 123.883 18.552C124.501 18.9253 124.987 19.4587 125.339 20.152C125.701 20.8347 125.883 21.6293 125.883 22.536C125.883 23.4427 125.701 24.248 125.339 24.952C124.987 25.6453 124.501 26.184 123.883 26.568C123.275 26.952 122.592 27.144 121.835 27.144C121.184 27.144 120.608 27.0107 120.107 26.744C119.616 26.4773 119.216 26.1413 118.907 25.736V31.224H116.667V18.136H118.907V19.416ZM123.595 22.536C123.595 22.0027 123.483 21.544 123.259 21.16C123.045 20.7653 122.757 20.4667 122.395 20.264C122.043 20.0613 121.659 19.96 121.243 19.96C120.837 19.96 120.453 20.0667 120.091 20.28C119.739 20.4827 119.451 20.7813 119.227 21.176C119.013 21.5707 118.907 22.0347 118.907 22.568C118.907 23.1013 119.013 23.5653 119.227 23.96C119.451 24.3547 119.739 24.6587 120.091 24.872C120.453 25.0747 120.837 25.176 121.243 25.176C121.659 25.176 122.043 25.0693 122.395 24.856C122.757 24.6427 123.045 24.3387 123.259 23.944C123.483 23.5493 123.595 23.08 123.595 22.536ZM132.422 18.008C133.478 18.008 134.332 18.344 134.982 19.016C135.633 19.6773 135.958 20.6053 135.958 21.8V27H133.718V22.104C133.718 21.4 133.542 20.8613 133.19 20.488C132.838 20.104 132.358 19.912 131.75 19.912C131.132 19.912 130.641 20.104 130.278 20.488C129.926 20.8613 129.75 21.4 129.75 22.104V27H127.51V18.136H129.75V19.24C130.049 18.856 130.428 18.5573 130.886 18.344C131.356 18.12 131.868 18.008 132.422 18.008ZM146.568 18.136L141.08 31.192H138.696L140.616 26.776L137.064 18.136H139.576L141.864 24.328L144.184 18.136H146.568ZM147.2 22.536C147.2 21.64 147.376 20.8453 147.728 20.152C148.091 19.4587 148.576 18.9253 149.184 18.552C149.803 18.1787 150.491 17.992 151.248 17.992C151.909 17.992 152.485 18.1253 152.976 18.392C153.477 18.6587 153.877 18.9947 154.176 19.4V18.136H156.432V27H154.176V25.704C153.888 26.12 153.488 26.4667 152.976 26.744C152.475 27.0107 151.893 27.144 151.232 27.144C150.485 27.144 149.803 26.952 149.184 26.568C148.576 26.184 148.091 25.6453 147.728 24.952C147.376 24.248 147.2 23.4427 147.2 22.536ZM154.176 22.568C154.176 22.024 154.069 21.56 153.856 21.176C153.643 20.7813 153.355 20.4827 152.992 20.28C152.629 20.0667 152.24 19.96 151.824 19.96C151.408 19.96 151.024 20.0613 150.672 20.264C150.32 20.4667 150.032 20.7653 149.808 21.16C149.595 21.544 149.488 22.0027 149.488 22.536C149.488 23.0693 149.595 23.5387 149.808 23.944C150.032 24.3387 150.32 24.6427 150.672 24.856C151.035 25.0693 151.419 25.176 151.824 25.176C152.24 25.176 152.629 25.0747 152.992 24.872C153.355 24.6587 153.643 24.36 153.856 23.976C154.069 23.5813 154.176 23.112 154.176 22.568Z" fill="#FB5C02"/>
<path d="M185.354 22.3536C185.549 22.1583 185.549 21.8417 185.354 21.6464L182.172 18.4645C181.976 18.2692 181.66 18.2692 181.464 18.4645C181.269 18.6597 181.269 18.9763 181.464 19.1716L184.293 22L181.464 24.8284C181.269 25.0237 181.269 25.3403 181.464 25.5355C181.66 25.7308 181.976 25.7308 182.172 25.5355L185.354 22.3536ZM168 22.5L185 22.5L185 21.5L168 21.5L168 22.5Z" fill="#FB5C02"/>
</svg>
